<svg width="16" height="16" viewBox="0 0 16 16" fill="none" xmlns="http://www.w3.org/2000/svg">
<path d="M5.33337 1.33334V3.33334" stroke="#787486" stroke-width="1.3" stroke-miterlimit="10" stroke-linecap="round" stroke-linejoin="round"/>
<path d="M10.6666 1.33334V3.33334" stroke="#787486" stroke-width="1.3" stroke-miterlimit="10" stroke-linecap="round" stroke-linejoin="round"/>
<path d="M10.6667 2.33334C12.8867 2.45334 14 3.30001 14 6.43334V10.5533C14 13.3 13.3333 14.6733 10 14.6733H6C2.66667 14.6733 2 13.3 2 10.5533V6.43334C2 3.30001 3.11333 2.46001 5.33333 2.33334H10.6667Z" stroke="#787486" stroke-width="1.3" stroke-miterlimit="10" stroke-linecap="round" stroke-linejoin="round"/>
<path d="M13.8333 11.7333H2.16663" stroke="#787486" stroke-width="1.3" stroke-miterlimit="10" stroke-linecap="round" stroke-linejoin="round"/>
<path d="M8.00004 5.5C7.18004 5.5 6.48671 5.94667 6.48671 6.81333C6.48671 7.22667 6.68004 7.54 6.97337 7.74C6.56671 7.98 6.33337 8.36667 6.33337 8.82C6.33337 9.64667 6.96671 10.16 8.00004 10.16C9.02671 10.16 9.66671 9.64667 9.66671 8.82C9.66671 8.36667 9.43337 7.97333 9.02004 7.74C9.32004 7.53333 9.50671 7.22667 9.50671 6.81333C9.50671 5.94667 8.82004 5.5 8.00004 5.5ZM8.00004 7.39333C7.65337 7.39333 7.40004 7.18667 7.40004 6.86C7.40004 6.52667 7.65337 6.33333 8.00004 6.33333C8.34671 6.33333 8.60004 6.52667 8.60004 6.86C8.60004 7.18667 8.34671 7.39333 8.00004 7.39333ZM8.00004 9.33333C7.56004 9.33333 7.24004 9.11333 7.24004 8.71333C7.24004 8.31333 7.56004 8.1 8.00004 8.1C8.44004 8.1 8.76004 8.32 8.76004 8.71333C8.76004 9.11333 8.44004 9.33333 8.00004 9.33333Z" fill="#787486"/>
</svg>
