<svg width="206" height="237" viewBox="0 0 206 237" fill="none" xmlns="http://www.w3.org/2000/svg">
<mask id="path-1-inside-1_7_763" fill="white">
<path fill-rule="evenodd" clip-rule="evenodd" d="M136 33.5156H190C198.837 33.5156 206 40.6791 206 49.5156V220.641C206 229.477 198.837 236.641 190 236.641H16C7.16345 236.641 0 229.477 0 220.641V49.5156C0 40.6791 7.16344 33.5156 16 33.5156H70C70 15.0055 84.7746 0 103 0C121.225 0 136 15.0055 136 33.5156Z"/>
</mask>
<path fill-rule="evenodd" clip-rule="evenodd" d="M136 33.5156H190C198.837 33.5156 206 40.6791 206 49.5156V220.641C206 229.477 198.837 236.641 190 236.641H16C7.16345 236.641 0 229.477 0 220.641V49.5156C0 40.6791 7.16344 33.5156 16 33.5156H70C70 15.0055 84.7746 0 103 0C121.225 0 136 15.0055 136 33.5156Z" fill="#F5F5F5"/>
<path d="M136 33.5156H135V34.5156H136V33.5156ZM70 33.5156V34.5156H71V33.5156H70ZM136 34.5156H190V32.5156H136V34.5156ZM190 34.5156C198.284 34.5156 205 41.2314 205 49.5156H207C207 40.1268 199.389 32.5156 190 32.5156V34.5156ZM205 49.5156V220.641H207V49.5156H205ZM205 220.641C205 228.925 198.284 235.641 190 235.641V237.641C199.389 237.641 207 230.029 207 220.641H205ZM190 235.641H16V237.641H190V235.641ZM16 235.641C7.71573 235.641 1 228.925 1 220.641H-1C-1 230.029 6.61116 237.641 16 237.641V235.641ZM1 220.641V49.5156H-1V220.641H1ZM1 49.5156C1 41.2313 7.71573 34.5156 16 34.5156V32.5156C6.61116 32.5156 -1 40.1268 -1 49.5156H1ZM16 34.5156H70V32.5156H16V34.5156ZM71 33.5156C71 15.5431 85.3414 1 103 1V-1C84.2078 -1 69 14.4678 69 33.5156H71ZM103 1C120.659 1 135 15.5431 135 33.5156H137C137 14.4678 121.792 -1 103 -1V1Z" fill="white" mask="url(#path-1-inside-1_7_763)"/>
</svg>
