<svg width="83" height="40" viewBox="0 0 83 40" fill="none" xmlns="http://www.w3.org/2000/svg">
<rect width="40" height="40" rx="6" fill="#5030E5"/>
<path d="M25.925 21.125L14.075 21.125C12.95 21.125 12.5 21.6 12.5 22.8L12.5 25.825C12.5 27.025 12.95 27.5 14.075 27.5L25.925 27.5C27.05 27.5 27.5 27.025 27.5 25.825L27.5 22.8C27.5 21.6 27.05 21.125 25.925 21.125Z" fill="white"/>
<path d="M25.925 12.5L14.075 12.5C12.95 12.5 12.5 12.975 12.5 14.175L12.5 17.2C12.5 18.3917 12.95 18.875 14.075 18.875L25.925 18.875C27.05 18.875 27.5 18.4 27.5 17.2L27.5 14.175C27.5 12.975 27.05 12.5 25.925 12.5Z" fill="white"/>
<path d="M77.1948 17.9999C78.5755 17.9999 79.6948 16.8807 79.6948 15.4999C79.6948 14.1192 78.5755 12.9999 77.1948 12.9999C75.8141 12.9999 74.6948 14.1192 74.6948 15.4999C74.6948 16.8807 75.8141 17.9999 77.1948 17.9999Z" stroke="#787486" stroke-width="1.5" stroke-miterlimit="10" stroke-linecap="round" stroke-linejoin="round"/>
<path d="M67.5 17.9999C68.8807 17.9999 70 16.8807 70 15.4999C70 14.1192 68.8807 12.9999 67.5 12.9999C66.1193 12.9999 65 14.1192 65 15.4999C65 16.8807 66.1193 17.9999 67.5 17.9999Z" stroke="#787486" stroke-width="1.5" stroke-miterlimit="10" stroke-linecap="round" stroke-linejoin="round"/>
<path d="M77.1948 27.9999C78.5755 27.9999 79.6948 26.8807 79.6948 25.4999C79.6948 24.1192 78.5755 22.9999 77.1948 22.9999C75.8141 22.9999 74.6948 24.1192 74.6948 25.4999C74.6948 26.8807 75.8141 27.9999 77.1948 27.9999Z" stroke="#787486" stroke-width="1.5" stroke-miterlimit="10" stroke-linecap="round" stroke-linejoin="round"/>
<path d="M67.5 27.9999C68.8807 27.9999 70 26.8807 70 25.4999C70 24.1192 68.8807 22.9999 67.5 22.9999C66.1193 22.9999 65 24.1192 65 25.4999C65 26.8807 66.1193 27.9999 67.5 27.9999Z" stroke="#787486" stroke-width="1.5" stroke-miterlimit="10" stroke-linecap="round" stroke-linejoin="round"/>
</svg>
