<svg width="26" height="20" viewBox="0 0 26 20" fill="none" xmlns="http://www.w3.org/2000/svg">
<path d="M18.5 17.225C18.3417 17.225 18.1834 17.1667 18.0584 17.0417L12.625 11.6083C11.7417 10.725 11.7417 9.27499 12.625 8.39165L18.0584 2.95832C18.3 2.71665 18.7 2.71665 18.9417 2.95832C19.1834 3.19999 19.1834 3.59999 18.9417 3.84165L13.5084 9.27499C13.1084 9.67499 13.1084 10.325 13.5084 10.725L18.9417 16.1583C19.1834 16.4 19.1834 16.8 18.9417 17.0417C18.8167 17.1583 18.6584 17.225 18.5 17.225Z" fill="#787486"/>
<path d="M12.5 17.225C12.3417 17.225 12.1834 17.1667 12.0584 17.0417L6.62502 11.6083C5.74169 10.725 5.74169 9.27499 6.62502 8.39165L12.0584 2.95832C12.3 2.71665 12.7 2.71665 12.9417 2.95832C13.1834 3.19999 13.1834 3.59999 12.9417 3.84165L7.50836 9.27499C7.10836 9.67499 7.10836 10.325 7.50836 10.725L12.9417 16.1583C13.1834 16.4 13.1834 16.8 12.9417 17.0417C12.8167 17.1583 12.6584 17.225 12.5 17.225Z" fill="#787486"/>
</svg>
