<svg width="72" height="30" viewBox="0 0 72 30" fill="none" xmlns="http://www.w3.org/2000/svg">
<path d="M11.25 27.5H18.75C25 27.5 27.5 25 27.5 18.75V11.25C27.5 5 25 2.5 18.75 2.5H11.25C5 2.5 2.5 5 2.5 11.25V18.75C2.5 25 5 27.5 11.25 27.5Z" fill="#5030E5" fill-opacity="0.2"/>
<path d="M16.1375 9.80001L9.64998 16.2875C9.39998 16.5375 9.16249 17.025 9.11249 17.375L8.76249 19.85C8.63749 20.75 9.26249 21.375 10.1625 21.25L12.6375 20.9C12.9875 20.85 13.475 20.6125 13.725 20.3625L20.2125 13.875C21.325 12.7625 21.8625 11.4625 20.2125 9.81251C18.5625 8.15001 17.2625 8.67501 16.1375 9.80001Z" stroke="#5030E5" stroke-width="1.5" stroke-miterlimit="10" stroke-linecap="round" stroke-linejoin="round"/>
<path d="M15.2124 10.725C15.7624 12.6875 17.2999 14.2375 19.2749 14.7875" stroke="#5030E5" stroke-width="1.5" stroke-miterlimit="10" stroke-linecap="round" stroke-linejoin="round"/>
<path d="M53.25 27.5H60.75C67 27.5 69.5 25 69.5 18.75V11.25C69.5 5 67 2.5 60.75 2.5H53.25C47 2.5 44.5 5 44.5 11.25V18.75C44.5 25 47 27.5 53.25 27.5Z" fill="#5030E5" fill-opacity="0.2"/>
<path d="M58.9934 19.3167H60.0001C62.3829 19.3167 64.3167 17.3828 64.3167 15C64.3167 12.6172 62.3829 10.6833 60.0001 10.6833H59.0001C58.6359 10.6833 58.3501 10.9785 58.3501 11.3333C58.3501 11.6895 58.6439 11.9833 59.0001 11.9833H60.0001C61.6639 11.9833 63.0167 13.3362 63.0167 15C63.0167 16.6638 61.6639 18.0167 60.0001 18.0167H58.9934C58.6372 18.0167 58.3434 18.3105 58.3434 18.6667C58.3434 19.0228 58.6372 19.3167 58.9934 19.3167Z" fill="#5030E5" stroke="#5030E5" stroke-width="0.3"/>
<path d="M53.9999 19.3167H54.9999C55.3561 19.3167 55.6499 19.0228 55.6499 18.6667C55.6499 18.3105 55.3561 18.0167 54.9999 18.0167H53.9999C52.3361 18.0167 50.9833 16.6638 50.9833 15C50.9833 13.3362 52.3361 11.9833 53.9999 11.9833H54.9999C55.3561 11.9833 55.6499 11.6895 55.6499 11.3333C55.6499 10.9772 55.3561 10.6833 54.9999 10.6833H53.9999C51.6171 10.6833 49.6833 12.6172 49.6833 15C49.6833 17.3828 51.6171 19.3167 53.9999 19.3167Z" fill="#5030E5" stroke="#5030E5" stroke-width="0.3"/>
<path d="M54.3333 15.65H59.6666C60.0228 15.65 60.3166 15.3562 60.3166 15C60.3166 14.6438 60.0228 14.35 59.6666 14.35H54.3333C53.9771 14.35 53.6833 14.6438 53.6833 15C53.6833 15.3562 53.9771 15.65 54.3333 15.65Z" fill="#5030E5" stroke="#5030E5" stroke-width="0.3"/>
</svg>
