<svg width="17" height="17" viewBox="0 0 17 17" fill="none" xmlns="http://www.w3.org/2000/svg">
<path d="M8.51532 15.6442C8.04446 15.6442 7.6009 15.4108 7.28699 15.0042L6.26338 13.6708C6.24291 13.6442 6.16102 13.6108 6.1269 13.6042H5.78569C2.94005 13.6042 1.17944 12.8508 1.17944 9.10416V5.77083C1.17944 2.82416 2.76945 1.27083 5.78569 1.27083H11.245C14.2612 1.27083 15.8512 2.82416 15.8512 5.77083V9.10416C15.8512 12.0508 14.2612 13.6042 11.245 13.6042H10.9038C10.8492 13.6042 10.8014 13.6308 10.7673 13.6708L9.74366 15.0042C9.42975 15.4108 8.98619 15.6442 8.51532 15.6442ZM5.78569 2.27083C3.34268 2.27083 2.20305 3.38416 2.20305 5.77083V9.10416C2.20305 12.1175 3.26079 12.6042 5.78569 12.6042H6.1269C6.47493 12.6042 6.87072 12.7975 7.08227 13.0708L8.10588 14.4042C8.34472 14.7108 8.68593 14.7108 8.92477 14.4042L9.94838 13.0708C10.1736 12.7775 10.5284 12.6042 10.9038 12.6042H11.245C13.688 12.6042 14.8276 11.4908 14.8276 9.10416V5.77083C14.8276 3.38416 13.688 2.27083 11.245 2.27083H5.78569Z" fill="#787486"/>
<path d="M8.51529 8.43751C8.13314 8.43751 7.83289 8.13751 7.83289 7.77084C7.83289 7.40417 8.13997 7.10417 8.51529 7.10417C8.89062 7.10417 9.1977 7.40417 9.1977 7.77084C9.1977 8.13751 8.89744 8.43751 8.51529 8.43751Z" fill="#787486"/>
<path d="M11.2449 8.43751C10.8628 8.43751 10.5625 8.13751 10.5625 7.77084C10.5625 7.40417 10.8696 7.10417 11.2449 7.10417C11.6202 7.10417 11.9273 7.40417 11.9273 7.77084C11.9273 8.13751 11.6271 8.43751 11.2449 8.43751Z" fill="#787486"/>
<path d="M5.78568 8.43751C5.40353 8.43751 5.10327 8.13751 5.10327 7.77084C5.10327 7.40417 5.41035 7.10417 5.78568 7.10417C6.161 7.10417 6.46809 7.40417 6.46809 7.77084C6.46809 8.13751 6.16783 8.43751 5.78568 8.43751Z" fill="#787486"/>
</svg>
