<svg width="17" height="18" viewBox="0 0 17 18" fill="none" xmlns="http://www.w3.org/2000/svg">
<path d="M14.7777 8.73598L14.5683 12.7305C14.4287 15.3935 13.7281 16.0244 11.0651 15.8848L4.40756 15.5359C1.74455 15.3963 1.11369 14.6957 1.25325 12.0327L1.60216 5.37515C1.74172 2.71214 2.44236 2.08128 5.10538 2.22084L6.10401 2.27318C7.10264 2.32551 7.30698 2.62996 7.65994 3.15582L8.58879 4.53966C8.82433 4.88579 8.96033 5.0932 9.62609 5.12809L11.6233 5.23276C14.2864 5.37232 14.9172 6.07296 14.7777 8.73598Z" stroke="#787486" stroke-miterlimit="10"/>
<path d="M6.104 2.27319L12.0958 2.58721C13.4273 2.65699 14.0581 3.35763 13.9884 4.68914L13.9402 5.60788" stroke="#787486" stroke-miterlimit="10" stroke-linecap="round" stroke-linejoin="round"/>
<path d="M9.64493 11.1373L6.31616 10.9629" stroke="#787486" stroke-miterlimit="10" stroke-linecap="round" stroke-linejoin="round"/>
</svg>
