<svg width="18" height="17" viewBox="0 0 18 17" fill="none" xmlns="http://www.w3.org/2000/svg">
<path d="M15.4814 8.20831V12.2083C15.4814 14.875 14.799 15.5416 12.0694 15.5416H5.24529C2.51566 15.5416 1.83325 14.875 1.83325 12.2083V5.54165C1.83325 2.87498 2.51566 2.20831 5.24529 2.20831H6.2689C7.29251 2.20831 7.51771 2.50165 7.90668 3.00831L8.93029 4.34165C9.1896 4.67498 9.33973 4.87498 10.0221 4.87498H12.0694C14.799 4.87498 15.4814 5.54165 15.4814 8.20831Z" stroke="#787486" stroke-miterlimit="10"/>
<path d="M6.2688 2.20831H12.4105C13.7753 2.20831 14.4577 2.87498 14.4577 4.20831V5.12831" stroke="#787486" stroke-miterlimit="10" stroke-linecap="round" stroke-linejoin="round"/>
<path d="M10.3632 10.875H6.95117" stroke="#787486" stroke-miterlimit="10" stroke-linecap="round" stroke-linejoin="round"/>
</svg>
