<svg width="16" height="17" viewBox="0 0 16 17" fill="none" xmlns="http://www.w3.org/2000/svg">
<path d="M7.99992 16.1761C7.53992 16.1761 7.10659 15.9427 6.79992 15.5361L5.79992 14.2027C5.77992 14.1761 5.69992 14.1427 5.66659 14.1361H5.33325C2.55325 14.1361 0.833252 13.3827 0.833252 9.63607V6.30273C0.833252 3.35607 2.38659 1.80273 5.33325 1.80273H10.6666C13.6133 1.80273 15.1666 3.35607 15.1666 6.30273V9.63607C15.1666 12.5827 13.6133 14.1361 10.6666 14.1361H10.3333C10.2799 14.1361 10.2333 14.1627 10.1999 14.2027L9.19992 15.5361C8.89325 15.9427 8.45992 16.1761 7.99992 16.1761ZM5.33325 2.80273C2.94659 2.80273 1.83325 3.91607 1.83325 6.30273V9.63607C1.83325 12.6494 2.86659 13.1361 5.33325 13.1361H5.66659C6.00659 13.1361 6.39325 13.3294 6.59992 13.6027L7.59992 14.9361C7.83325 15.2427 8.16659 15.2427 8.39992 14.9361L9.39992 13.6027C9.61992 13.3094 9.96659 13.1361 10.3333 13.1361H10.6666C13.0533 13.1361 14.1666 12.0227 14.1666 9.63607V6.30273C14.1666 3.91607 13.0533 2.80273 10.6666 2.80273H5.33325Z" fill="#787486"/>
<path d="M7.99992 8.96956C7.62659 8.96956 7.33325 8.66956 7.33325 8.3029C7.33325 7.93623 7.63325 7.63623 7.99992 7.63623C8.36659 7.63623 8.66659 7.93623 8.66659 8.3029C8.66659 8.66956 8.37325 8.96956 7.99992 8.96956Z" fill="#787486"/>
<path d="M10.6667 8.96956C10.2933 8.96956 10 8.66956 10 8.3029C10 7.93623 10.3 7.63623 10.6667 7.63623C11.0333 7.63623 11.3333 7.93623 11.3333 8.3029C11.3333 8.66956 11.04 8.96956 10.6667 8.96956Z" fill="#787486"/>
<path d="M5.33341 8.96956C4.96008 8.96956 4.66675 8.66956 4.66675 8.3029C4.66675 7.93623 4.96675 7.63623 5.33341 7.63623C5.70008 7.63623 6.00008 7.93623 6.00008 8.3029C6.00008 8.66956 5.70675 8.96956 5.33341 8.96956Z" fill="#787486"/>
</svg>
