<svg width="17" height="18" viewBox="0 0 17 18" fill="none" xmlns="http://www.w3.org/2000/svg">
<path d="M8.1944 16.4055C7.73503 16.3814 7.3145 16.1257 7.02954 15.7035L6.10069 14.3197C6.08211 14.292 6.00397 14.2545 5.97103 14.2461L5.63815 14.2287C2.86196 14.0832 1.18374 13.2409 1.37983 9.49936L1.55428 6.17059C1.7085 3.22796 3.341 1.75805 6.28363 1.91227L11.6097 2.19139C14.5523 2.34561 16.0222 3.97811 15.868 6.92074L15.6935 10.2495C15.5393 13.1921 13.9068 14.662 10.9642 14.5078L10.6313 14.4904C10.578 14.4876 10.53 14.5118 10.4947 14.55L9.42625 15.8291C9.09872 16.2192 8.65377 16.4295 8.1944 16.4055ZM6.23129 2.9109C3.8479 2.78599 2.67782 3.83953 2.55291 6.22293L2.37846 9.55169C2.22075 12.5609 3.2272 13.101 5.69049 13.2301L6.02336 13.2475C6.3629 13.2653 6.73892 13.4786 6.93099 13.7624L7.85984 15.1462C8.07681 15.4647 8.40968 15.4821 8.65875 15.1881L9.72716 13.9089C9.96221 13.6275 10.3175 13.4726 10.6836 13.4918L11.0165 13.5092C13.3999 13.6341 14.57 12.5806 14.6949 10.1972L14.8693 6.8684C14.9943 4.48501 13.9407 3.31493 11.5573 3.19002L6.23129 2.9109Z" fill="#787486"/>
<path d="M8.57156 9.20868C8.19874 9.18914 7.92151 8.8742 7.9407 8.50804C7.95989 8.14187 8.27517 7.85799 8.64134 7.87718C9.0075 7.89637 9.29139 8.21166 9.2722 8.57782C9.25301 8.94398 8.94438 9.22822 8.57156 9.20868Z" fill="#787486"/>
<path d="M11.2346 9.34833C10.8618 9.32879 10.5846 9.01385 10.6038 8.64769C10.623 8.28152 10.9383 7.99763 11.3044 8.01682C11.6706 8.03601 11.9545 8.3513 11.9353 8.71747C11.9161 9.08363 11.6075 9.36787 11.2346 9.34833Z" fill="#787486"/>
<path d="M5.90847 9.06928C5.53565 9.04974 5.25842 8.7348 5.27761 8.36863C5.2968 8.00247 5.61209 7.71858 5.97825 7.73777C6.34442 7.75696 6.62831 8.07225 6.60912 8.43842C6.58993 8.80458 6.28129 9.08882 5.90847 9.06928Z" fill="#787486"/>
</svg>
