<svg width="18" height="18" viewBox="0 0 18 18" fill="none" xmlns="http://www.w3.org/2000/svg">
<path d="M15.5684 8.74818L15.3591 12.7427C15.2195 15.4057 14.5189 16.0366 11.8559 15.897L5.19834 15.5481C2.53532 15.4085 1.90446 14.7079 2.04402 12.0449L2.39293 5.38736C2.53249 2.72435 3.23314 2.09348 5.89615 2.23305L6.89478 2.28538C7.89341 2.33772 8.09775 2.64216 8.45072 3.16802L9.37956 4.55187C9.6151 4.898 9.7511 5.1054 10.4169 5.14029L12.4141 5.24497C15.0771 5.38453 15.708 6.08517 15.5684 8.74818Z" stroke="#787486" stroke-miterlimit="10"/>
<path d="M6.89465 2.28537L12.8864 2.59939C14.2179 2.66917 14.8488 3.36981 14.779 4.70132L14.7309 5.62006" stroke="#787486" stroke-miterlimit="10" stroke-linecap="round" stroke-linejoin="round"/>
<path d="M10.4356 11.1495L7.10681 10.9751" stroke="#787486" stroke-miterlimit="10" stroke-linecap="round" stroke-linejoin="round"/>
</svg>
