<svg width="24" height="25" viewBox="0 0 24 25" fill="none" xmlns="http://www.w3.org/2000/svg">
<path d="M19.21 6.67251C18.17 4.57251 16.16 3.02251 13.83 2.51251C11.39 1.97251 8.88997 2.55251 6.97997 4.09251C5.05997 5.62251 3.96997 7.91251 3.96997 10.3625C3.96997 12.9525 5.51997 15.6625 7.85997 17.2325V18.0625C7.84997 18.3425 7.83997 18.7725 8.17997 19.1225C8.52997 19.4825 9.04997 19.5225 9.45997 19.5225H14.59C15.13 19.5225 15.54 19.3725 15.82 19.0925C16.2 18.7025 16.19 18.2025 16.18 17.9325V17.2325C19.28 15.1425 21.23 10.7325 19.21 6.67251Z" fill="#FBCB18"/>
<path d="M15.26 22.3125C15.2 22.3125 15.13 22.3025 15.07 22.2825C13.06 21.7125 10.95 21.7125 8.94003 22.2825C8.57003 22.3825 8.18003 22.1725 8.08003 21.8025C7.97003 21.4325 8.19003 21.0425 8.56003 20.9425C10.82 20.3025 13.2 20.3025 15.46 20.9425C15.83 21.0525 16.05 21.4325 15.94 21.8025C15.84 22.1125 15.56 22.3125 15.26 22.3125Z" fill="#FBCB18"/>
</svg>
