<svg width="16" height="17" viewBox="0 0 16 17" fill="none" xmlns="http://www.w3.org/2000/svg">
<path d="M14.3333 7.81772V11.8177C14.3333 14.4844 13.6667 15.1511 11 15.1511H4.33333C1.66667 15.1511 1 14.4844 1 11.8177V5.15105C1 2.48439 1.66667 1.81772 4.33333 1.81772H5.33333C6.33333 1.81772 6.55333 2.11105 6.93333 2.61772L7.93333 3.95105C8.18667 4.28439 8.33333 4.48439 9 4.48439H11C13.6667 4.48439 14.3333 5.15105 14.3333 7.81772Z" stroke="#787486" stroke-miterlimit="10"/>
<path d="M5.33325 1.81772H11.3333C12.6666 1.81772 13.3333 2.48439 13.3333 3.81772V4.73772" stroke="#787486" stroke-miterlimit="10" stroke-linecap="round" stroke-linejoin="round"/>
<path d="M9.33333 10.4844H6" stroke="#787486" stroke-miterlimit="10" stroke-linecap="round" stroke-linejoin="round"/>
</svg>
