<svg width="16" height="17" viewBox="0 0 16 17" fill="none" xmlns="http://www.w3.org/2000/svg">
<path d="M14.3333 8.20831V12.2083C14.3333 14.875 13.6667 15.5416 11 15.5416H4.33333C1.66667 15.5416 1 14.875 1 12.2083V5.54165C1 2.87498 1.66667 2.20831 4.33333 2.20831H5.33333C6.33333 2.20831 6.55333 2.50165 6.93333 3.00831L7.93333 4.34165C8.18667 4.67498 8.33333 4.87498 9 4.87498H11C13.6667 4.87498 14.3333 5.54165 14.3333 8.20831Z" stroke="#787486" stroke-miterlimit="10"/>
<path d="M5.33325 2.20831H11.3333C12.6666 2.20831 13.3333 2.87498 13.3333 4.20831V5.12831" stroke="#787486" stroke-miterlimit="10" stroke-linecap="round" stroke-linejoin="round"/>
<path d="M9.33333 10.875H6" stroke="#787486" stroke-miterlimit="10" stroke-linecap="round" stroke-linejoin="round"/>
</svg>
