<svg width="16" height="17" viewBox="0 0 16 17" fill="none" xmlns="http://www.w3.org/2000/svg">
<path d="M14.3333 7.80209V11.8021C14.3333 14.4688 13.6667 15.1354 11 15.1354H4.33333C1.66667 15.1354 1 14.4688 1 11.8021V5.13543C1 2.46876 1.66667 1.80209 4.33333 1.80209H5.33333C6.33333 1.80209 6.55333 2.09543 6.93333 2.60209L7.93333 3.93543C8.18667 4.26876 8.33333 4.46876 9 4.46876H11C13.6667 4.46876 14.3333 5.13543 14.3333 7.80209Z" stroke="#787486" stroke-miterlimit="10"/>
<path d="M5.33325 1.80209H11.3333C12.6666 1.80209 13.3333 2.46876 13.3333 3.80209V4.72209" stroke="#787486" stroke-miterlimit="10" stroke-linecap="round" stroke-linejoin="round"/>
<path d="M9.33333 10.4688H6" stroke="#787486" stroke-miterlimit="10" stroke-linecap="round" stroke-linejoin="round"/>
</svg>
