<svg width="16" height="17" viewBox="0 0 16 17" fill="none" xmlns="http://www.w3.org/2000/svg">
<path d="M7.99992 15.7909C7.53992 15.7909 7.10659 15.5575 6.79992 15.1509L5.79992 13.8175C5.77992 13.7909 5.69992 13.7575 5.66659 13.7509H5.33325C2.55325 13.7509 0.833252 12.9975 0.833252 9.25088V5.91754C0.833252 2.97087 2.38659 1.41754 5.33325 1.41754H10.6666C13.6133 1.41754 15.1666 2.97087 15.1666 5.91754V9.25088C15.1666 12.1975 13.6133 13.7509 10.6666 13.7509H10.3333C10.2799 13.7509 10.2333 13.7775 10.1999 13.8175L9.19992 15.1509C8.89325 15.5575 8.45992 15.7909 7.99992 15.7909ZM5.33325 2.41754C2.94659 2.41754 1.83325 3.53087 1.83325 5.91754V9.25088C1.83325 12.2642 2.86659 12.7509 5.33325 12.7509H5.66659C6.00659 12.7509 6.39325 12.9442 6.59992 13.2175L7.59992 14.5509C7.83325 14.8575 8.16659 14.8575 8.39992 14.5509L9.39992 13.2175C9.61992 12.9242 9.96659 12.7509 10.3333 12.7509H10.6666C13.0533 12.7509 14.1666 11.6375 14.1666 9.25088V5.91754C14.1666 3.53087 13.0533 2.41754 10.6666 2.41754H5.33325Z" fill="#787486"/>
<path d="M7.99992 8.58425C7.62659 8.58425 7.33325 8.28425 7.33325 7.91758C7.33325 7.55092 7.63325 7.25092 7.99992 7.25092C8.36659 7.25092 8.66659 7.55092 8.66659 7.91758C8.66659 8.28425 8.37325 8.58425 7.99992 8.58425Z" fill="#787486"/>
<path d="M10.6667 8.58425C10.2933 8.58425 10 8.28425 10 7.91758C10 7.55092 10.3 7.25092 10.6667 7.25092C11.0333 7.25092 11.3333 7.55092 11.3333 7.91758C11.3333 8.28425 11.04 8.58425 10.6667 8.58425Z" fill="#787486"/>
<path d="M5.33341 8.58425C4.96008 8.58425 4.66675 8.28425 4.66675 7.91758C4.66675 7.55092 4.96675 7.25092 5.33341 7.25092C5.70008 7.25092 6.00008 7.55092 6.00008 7.91758C6.00008 8.28425 5.70675 8.58425 5.33341 8.58425Z" fill="#787486"/>
</svg>
