<svg width="16" height="17" viewBox="0 0 16 17" fill="none" xmlns="http://www.w3.org/2000/svg">
<path d="M14.3333 8.30273V12.3027C14.3333 14.9694 13.6667 15.6361 11 15.6361H4.33333C1.66667 15.6361 1 14.9694 1 12.3027V5.63607C1 2.9694 1.66667 2.30273 4.33333 2.30273H5.33333C6.33333 2.30273 6.55333 2.59607 6.93333 3.10273L7.93333 4.43607C8.18667 4.7694 8.33333 4.9694 9 4.9694H11C13.6667 4.9694 14.3333 5.63607 14.3333 8.30273Z" stroke="#787486" stroke-miterlimit="10"/>
<path d="M5.33325 2.30273H11.3333C12.6666 2.30273 13.3333 2.9694 13.3333 4.30273V5.22273" stroke="#787486" stroke-miterlimit="10" stroke-linecap="round" stroke-linejoin="round"/>
<path d="M9.33333 10.9695H6" stroke="#787486" stroke-miterlimit="10" stroke-linecap="round" stroke-linejoin="round"/>
</svg>
