<svg width="16" height="17" viewBox="0 0 16 17" fill="none" xmlns="http://www.w3.org/2000/svg">
<path d="M7.99992 15.6911C7.53992 15.6911 7.10659 15.4577 6.79992 15.0511L5.79992 13.7177C5.77992 13.6911 5.69992 13.6577 5.66659 13.6511H5.33325C2.55325 13.6511 0.833252 12.8977 0.833252 9.15105V5.81772C0.833252 2.87105 2.38659 1.31772 5.33325 1.31772H10.6666C13.6133 1.31772 15.1666 2.87105 15.1666 5.81772V9.15105C15.1666 12.0977 13.6133 13.6511 10.6666 13.6511H10.3333C10.2799 13.6511 10.2333 13.6777 10.1999 13.7177L9.19992 15.0511C8.89325 15.4577 8.45992 15.6911 7.99992 15.6911ZM5.33325 2.31772C2.94659 2.31772 1.83325 3.43105 1.83325 5.81772V9.15105C1.83325 12.1644 2.86659 12.6511 5.33325 12.6511H5.66659C6.00659 12.6511 6.39325 12.8444 6.59992 13.1177L7.59992 14.4511C7.83325 14.7577 8.16659 14.7577 8.39992 14.4511L9.39992 13.1177C9.61992 12.8244 9.96659 12.6511 10.3333 12.6511H10.6666C13.0533 12.6511 14.1666 11.5377 14.1666 9.15105V5.81772C14.1666 3.43105 13.0533 2.31772 10.6666 2.31772H5.33325Z" fill="#787486"/>
<path d="M7.99992 8.48436C7.62659 8.48436 7.33325 8.18436 7.33325 7.8177C7.33325 7.45103 7.63325 7.15103 7.99992 7.15103C8.36659 7.15103 8.66659 7.45103 8.66659 7.8177C8.66659 8.18436 8.37325 8.48436 7.99992 8.48436Z" fill="#787486"/>
<path d="M10.6667 8.48436C10.2933 8.48436 10 8.18436 10 7.8177C10 7.45103 10.3 7.15103 10.6667 7.15103C11.0333 7.15103 11.3333 7.45103 11.3333 7.8177C11.3333 8.18436 11.04 8.48436 10.6667 8.48436Z" fill="#787486"/>
<path d="M5.33341 8.48436C4.96008 8.48436 4.66675 8.18436 4.66675 7.8177C4.66675 7.45103 4.96675 7.15103 5.33341 7.15103C5.70008 7.15103 6.00008 7.45103 6.00008 7.8177C6.00008 8.18436 5.70675 8.48436 5.33341 8.48436Z" fill="#787486"/>
</svg>
