<svg width="16" height="17" viewBox="0 0 16 17" fill="none" xmlns="http://www.w3.org/2000/svg">
<path d="M7.99992 15.6754C7.53992 15.6754 7.10659 15.4421 6.79992 15.0354L5.79992 13.7021C5.77992 13.6754 5.69992 13.6421 5.66659 13.6354H5.33325C2.55325 13.6354 0.833252 12.8821 0.833252 9.13543V5.80209C0.833252 2.85543 2.38659 1.30209 5.33325 1.30209H10.6666C13.6133 1.30209 15.1666 2.85543 15.1666 5.80209V9.13543C15.1666 12.0821 13.6133 13.6354 10.6666 13.6354H10.3333C10.2799 13.6354 10.2333 13.6621 10.1999 13.7021L9.19992 15.0354C8.89325 15.4421 8.45992 15.6754 7.99992 15.6754ZM5.33325 2.30209C2.94659 2.30209 1.83325 3.41543 1.83325 5.80209V9.13543C1.83325 12.1488 2.86659 12.6354 5.33325 12.6354H5.66659C6.00659 12.6354 6.39325 12.8288 6.59992 13.1021L7.59992 14.4354C7.83325 14.7421 8.16659 14.7421 8.39992 14.4354L9.39992 13.1021C9.61992 12.8088 9.96659 12.6354 10.3333 12.6354H10.6666C13.0533 12.6354 14.1666 11.5221 14.1666 9.13543V5.80209C14.1666 3.41543 13.0533 2.30209 10.6666 2.30209H5.33325Z" fill="#787486"/>
<path d="M7.99992 8.46874C7.62659 8.46874 7.33325 8.16874 7.33325 7.80207C7.33325 7.43541 7.63325 7.13541 7.99992 7.13541C8.36659 7.13541 8.66659 7.43541 8.66659 7.80207C8.66659 8.16874 8.37325 8.46874 7.99992 8.46874Z" fill="#787486"/>
<path d="M10.6667 8.46874C10.2933 8.46874 10 8.16874 10 7.80207C10 7.43541 10.3 7.13541 10.6667 7.13541C11.0333 7.13541 11.3333 7.43541 11.3333 7.80207C11.3333 8.16874 11.04 8.46874 10.6667 8.46874Z" fill="#787486"/>
<path d="M5.33341 8.46874C4.96008 8.46874 4.66675 8.16874 4.66675 7.80207C4.66675 7.43541 4.96675 7.13541 5.33341 7.13541C5.70008 7.13541 6.00008 7.43541 6.00008 7.80207C6.00008 8.16874 5.70675 8.46874 5.33341 8.46874Z" fill="#787486"/>
</svg>
