<svg width="18" height="16" viewBox="0 0 18 16" fill="none" xmlns="http://www.w3.org/2000/svg">
<path d="M9.16376 15.2067C8.6929 15.2067 8.24934 14.9733 7.93543 14.5667L6.91182 13.2333C6.89134 13.2067 6.80946 13.1733 6.77534 13.1667H6.43413C3.58849 13.1667 1.82788 12.4133 1.82788 8.66667V5.33333C1.82788 2.38667 3.41789 0.833333 6.43413 0.833333H11.8934C14.9096 0.833333 16.4996 2.38667 16.4996 5.33333V8.66667C16.4996 11.6133 14.9096 13.1667 11.8934 13.1667H11.5522C11.4976 13.1667 11.4498 13.1933 11.4157 13.2333L10.3921 14.5667C10.0782 14.9733 9.63462 15.2067 9.16376 15.2067ZM6.43413 1.83333C3.99111 1.83333 2.85149 2.94667 2.85149 5.33333V8.66667C2.85149 11.68 3.90922 12.1667 6.43413 12.1667H6.77534C7.12336 12.1667 7.51916 12.36 7.73071 12.6333L8.75432 13.9667C8.99316 14.2733 9.33436 14.2733 9.57321 13.9667L10.5968 12.6333C10.822 12.34 11.1769 12.1667 11.5522 12.1667H11.8934C14.3364 12.1667 15.476 11.0533 15.476 8.66667V5.33333C15.476 2.94667 14.3364 1.83333 11.8934 1.83333H6.43413Z" fill="#787486"/>
<path d="M9.16385 8C8.7817 8 8.48145 7.7 8.48145 7.33333C8.48145 6.96667 8.78853 6.66667 9.16385 6.66667C9.53918 6.66667 9.84626 6.96667 9.84626 7.33333C9.84626 7.7 9.546 8 9.16385 8Z" fill="#787486"/>
<path d="M11.8933 8C11.5112 8 11.2109 7.7 11.2109 7.33333C11.2109 6.96667 11.518 6.66667 11.8933 6.66667C12.2687 6.66667 12.5758 6.96667 12.5758 7.33333C12.5758 7.7 12.2755 8 11.8933 8Z" fill="#787486"/>
<path d="M6.43412 8C6.05197 8 5.75171 7.7 5.75171 7.33333C5.75171 6.96667 6.05879 6.66667 6.43412 6.66667C6.80944 6.66667 7.11652 6.96667 7.11652 7.33333C7.11652 7.7 6.81626 8 6.43412 8Z" fill="#787486"/>
</svg>
