<svg width="16" height="16" viewBox="0 0 16 16" fill="none" xmlns="http://www.w3.org/2000/svg">
<path d="M6.10646 7.74666C6.08646 7.74666 6.07313 7.74666 6.05313 7.74666C6.0198 7.73999 5.97313 7.73999 5.93313 7.74666C3.99979 7.68666 2.53979 6.16666 2.53979 4.29333C2.53979 2.38666 4.09313 0.833328 5.9998 0.833328C7.90646 0.833328 9.4598 2.38666 9.4598 4.29333C9.45313 6.16666 7.98646 7.68666 6.12646 7.74666C6.1198 7.74666 6.11313 7.74666 6.10646 7.74666ZM5.9998 1.83333C4.64646 1.83333 3.5398 2.93999 3.5398 4.29333C3.5398 5.62666 4.57979 6.69999 5.90646 6.74666C5.94646 6.73999 6.03313 6.73999 6.1198 6.74666C7.42646 6.68666 8.45313 5.61333 8.4598 4.29333C8.4598 2.93999 7.35313 1.83333 5.9998 1.83333Z" fill="#787486"/>
<path d="M11.0263 7.83334C11.0063 7.83334 10.9863 7.83334 10.9663 7.82667C10.693 7.85334 10.413 7.66001 10.3863 7.38667C10.3597 7.11334 10.5263 6.86667 10.7997 6.83334C10.8797 6.82667 10.9663 6.82667 11.0397 6.82667C12.013 6.77334 12.773 5.97334 12.773 4.99334C12.773 3.98001 11.953 3.16 10.9397 3.16C10.6663 3.16667 10.4397 2.94001 10.4397 2.66667C10.4397 2.39334 10.6663 2.16667 10.9397 2.16667C12.4997 2.16667 13.773 3.44001 13.773 5.00001C13.773 6.53334 12.573 7.77334 11.0463 7.83334C11.0397 7.83334 11.033 7.83334 11.0263 7.83334Z" fill="#787486"/>
<path d="M6.11307 15.0333C4.80641 15.0333 3.49307 14.7 2.49974 14.0333C1.57307 13.42 1.06641 12.58 1.06641 11.6667C1.06641 10.7533 1.57307 9.90667 2.49974 9.28667C4.49974 7.96001 7.73974 7.96001 9.72641 9.28667C10.6464 9.90001 11.1597 10.74 11.1597 11.6533C11.1597 12.5667 10.6531 13.4133 9.72641 14.0333C8.72641 14.7 7.41974 15.0333 6.11307 15.0333ZM3.05307 10.1267C2.41307 10.5533 2.06641 11.1 2.06641 11.6733C2.06641 12.24 2.41974 12.7867 3.05307 13.2067C4.71307 14.32 7.51307 14.32 9.17307 13.2067C9.81307 12.78 10.1597 12.2333 10.1597 11.66C10.1597 11.0933 9.80641 10.5467 9.17307 10.1267C7.51307 9.02 4.71307 9.02 3.05307 10.1267Z" fill="#787486"/>
<path d="M12.2263 13.8333C11.993 13.8333 11.7863 13.6733 11.7396 13.4333C11.6863 13.16 11.8596 12.9 12.1263 12.84C12.5463 12.7533 12.933 12.5867 13.233 12.3533C13.613 12.0667 13.8196 11.7067 13.8196 11.3267C13.8196 10.9467 13.613 10.5867 13.2396 10.3067C12.9463 10.08 12.5796 9.92 12.1463 9.82C11.8796 9.76 11.7063 9.49333 11.7663 9.22C11.8263 8.95333 12.093 8.78 12.3663 8.84C12.9396 8.96666 13.4396 9.19333 13.8463 9.50666C14.4663 9.97333 14.8196 10.6333 14.8196 11.3267C14.8196 12.02 14.4596 12.68 13.8396 13.1533C13.4263 13.4733 12.9063 13.7067 12.333 13.82C12.293 13.8333 12.2596 13.8333 12.2263 13.8333Z" fill="#787486"/>
</svg>
