<svg width="24" height="25" viewBox="0 0 24 25" fill="none" xmlns="http://www.w3.org/2000/svg">
<path d="M8.5 19.3125H8C4 19.3125 2 18.3125 2 13.3125V8.3125C2 4.3125 4 2.3125 8 2.3125H16C20 2.3125 22 4.3125 22 8.3125V13.3125C22 17.3125 20 19.3125 16 19.3125H15.5C15.19 19.3125 14.89 19.4625 14.7 19.7125L13.2 21.7125C12.54 22.5925 11.46 22.5925 10.8 21.7125L9.3 19.7125C9.14 19.4925 8.77 19.3125 8.5 19.3125Z" stroke="#787486" stroke-width="1.5" stroke-miterlimit="10" stroke-linecap="round" stroke-linejoin="round"/>
<path d="M15.9965 11.3125H16.0054" stroke="#787486" stroke-width="2" stroke-linecap="round" stroke-linejoin="round"/>
<path d="M11.9955 11.3125H12.0045" stroke="#787486" stroke-width="2" stroke-linecap="round" stroke-linejoin="round"/>
<path d="M7.99451 11.3125H8.00349" stroke="#787486" stroke-width="2" stroke-linecap="round" stroke-linejoin="round"/>
</svg>
