<svg width="16" height="16" viewBox="0 0 16 16" fill="none" xmlns="http://www.w3.org/2000/svg">
<path d="M7.99992 15.2067C7.53992 15.2067 7.10659 14.9733 6.79992 14.5667L5.79992 13.2333C5.77992 13.2067 5.69992 13.1733 5.66659 13.1667H5.33325C2.55325 13.1667 0.833252 12.4133 0.833252 8.66668V5.33334C0.833252 2.38668 2.38659 0.833344 5.33325 0.833344H10.6666C13.6133 0.833344 15.1666 2.38668 15.1666 5.33334V8.66668C15.1666 11.6133 13.6133 13.1667 10.6666 13.1667H10.3333C10.2799 13.1667 10.2333 13.1933 10.1999 13.2333L9.19992 14.5667C8.89325 14.9733 8.45992 15.2067 7.99992 15.2067ZM5.33325 1.83334C2.94659 1.83334 1.83325 2.94668 1.83325 5.33334V8.66668C1.83325 11.68 2.86659 12.1667 5.33325 12.1667H5.66659C6.00659 12.1667 6.39325 12.36 6.59992 12.6333L7.59992 13.9667C7.83325 14.2733 8.16659 14.2733 8.39992 13.9667L9.39992 12.6333C9.61992 12.34 9.96659 12.1667 10.3333 12.1667H10.6666C13.0533 12.1667 14.1666 11.0533 14.1666 8.66668V5.33334C14.1666 2.94668 13.0533 1.83334 10.6666 1.83334H5.33325Z" fill="#787486"/>
<path d="M7.99992 7.99999C7.62659 7.99999 7.33325 7.69999 7.33325 7.33332C7.33325 6.96666 7.63325 6.66666 7.99992 6.66666C8.36659 6.66666 8.66659 6.96666 8.66659 7.33332C8.66659 7.69999 8.37325 7.99999 7.99992 7.99999Z" fill="#787486"/>
<path d="M10.6667 7.99999C10.2933 7.99999 10 7.69999 10 7.33332C10 6.96666 10.3 6.66666 10.6667 6.66666C11.0333 6.66666 11.3333 6.96666 11.3333 7.33332C11.3333 7.69999 11.04 7.99999 10.6667 7.99999Z" fill="#787486"/>
<path d="M5.33341 7.99999C4.96008 7.99999 4.66675 7.69999 4.66675 7.33332C4.66675 6.96666 4.96675 6.66666 5.33341 6.66666C5.70008 6.66666 6.00008 6.96666 6.00008 7.33332C6.00008 7.69999 5.70675 7.99999 5.33341 7.99999Z" fill="#787486"/>
</svg>
