<svg width="24" height="25" viewBox="0 0 24 25" fill="none" xmlns="http://www.w3.org/2000/svg">
<path d="M7 11.0625H5C2.58 11.0625 1.25 9.7325 1.25 7.3125V5.3125C1.25 2.8925 2.58 1.5625 5 1.5625H7C9.42 1.5625 10.75 2.8925 10.75 5.3125V7.3125C10.75 9.7325 9.42 11.0625 7 11.0625ZM5 3.0625C3.42 3.0625 2.75 3.7325 2.75 5.3125V7.3125C2.75 8.8925 3.42 9.5625 5 9.5625H7C8.58 9.5625 9.25 8.8925 9.25 7.3125V5.3125C9.25 3.7325 8.58 3.0625 7 3.0625H5Z" fill="#787486"/>
<path d="M19 11.0625H17C14.58 11.0625 13.25 9.7325 13.25 7.3125V5.3125C13.25 2.8925 14.58 1.5625 17 1.5625H19C21.42 1.5625 22.75 2.8925 22.75 5.3125V7.3125C22.75 9.7325 21.42 11.0625 19 11.0625ZM17 3.0625C15.42 3.0625 14.75 3.7325 14.75 5.3125V7.3125C14.75 8.8925 15.42 9.5625 17 9.5625H19C20.58 9.5625 21.25 8.8925 21.25 7.3125V5.3125C21.25 3.7325 20.58 3.0625 19 3.0625H17Z" fill="#787486"/>
<path d="M19 23.0625H17C14.58 23.0625 13.25 21.7325 13.25 19.3125V17.3125C13.25 14.8925 14.58 13.5625 17 13.5625H19C21.42 13.5625 22.75 14.8925 22.75 17.3125V19.3125C22.75 21.7325 21.42 23.0625 19 23.0625ZM17 15.0625C15.42 15.0625 14.75 15.7325 14.75 17.3125V19.3125C14.75 20.8925 15.42 21.5625 17 21.5625H19C20.58 21.5625 21.25 20.8925 21.25 19.3125V17.3125C21.25 15.7325 20.58 15.0625 19 15.0625H17Z" fill="#787486"/>
<path d="M7 23.0625H5C2.58 23.0625 1.25 21.7325 1.25 19.3125V17.3125C1.25 14.8925 2.58 13.5625 5 13.5625H7C9.42 13.5625 10.75 14.8925 10.75 17.3125V19.3125C10.75 21.7325 9.42 23.0625 7 23.0625ZM5 15.0625C3.42 15.0625 2.75 15.7325 2.75 17.3125V19.3125C2.75 20.8925 3.42 21.5625 5 21.5625H7C8.58 21.5625 9.25 20.8925 9.25 19.3125V17.3125C9.25 15.7325 8.58 15.0625 7 15.0625H5Z" fill="#787486"/>
</svg>
