<svg width="18" height="18" viewBox="0 0 18 18" fill="none" xmlns="http://www.w3.org/2000/svg">
<path d="M8.98505 16.4176C8.52568 16.3935 8.10515 16.1378 7.82019 15.7157L6.89134 14.3318C6.87276 14.3042 6.79462 14.2667 6.76168 14.2583L6.4288 14.2408C3.65261 14.0954 1.97439 13.253 2.17048 9.5115L2.34493 6.18274C2.49915 3.24011 4.13165 1.7702 7.07428 1.92442L12.4003 2.20354C15.3429 2.35776 16.8128 3.99026 16.6586 6.93289L16.4842 10.2617C16.33 13.2043 14.6975 14.6742 11.7548 14.52L11.4219 14.5025C11.3687 14.4997 11.3207 14.5239 11.2853 14.5621L10.2169 15.8413C9.88937 16.2314 9.44442 16.4417 8.98505 16.4176ZM7.02194 2.92305C4.63855 2.79814 3.46847 3.85168 3.34356 6.23507L3.16911 9.56384C3.0114 12.573 4.01785 13.1131 6.48114 13.2422L6.81401 13.2597C7.15355 13.2775 7.52957 13.4908 7.72164 13.7745L8.65049 15.1584C8.86746 15.4768 9.20033 15.4943 9.4494 15.2002L10.5178 13.9211C10.7529 13.6397 11.1081 13.4847 11.4743 13.5039L11.8072 13.5213C14.1906 13.6463 15.3606 12.5927 15.4855 10.2093L15.66 6.88055C15.7849 4.49715 14.7314 3.32708 12.348 3.20217L7.02194 2.92305Z" fill="#787486"/>
<path d="M9.36221 9.22083C8.98939 9.20129 8.71215 8.88635 8.73134 8.52018C8.75053 8.15402 9.06582 7.87013 9.43199 7.88932C9.79815 7.90851 10.082 8.2238 10.0629 8.58997C10.0437 8.95613 9.73503 9.24037 9.36221 9.22083Z" fill="#787486"/>
<path d="M12.0252 9.36038C11.6523 9.34085 11.3751 9.02591 11.3943 8.65974C11.4135 8.29358 11.7288 8.00969 12.095 8.02888C12.4611 8.04807 12.745 8.36336 12.7258 8.72952C12.7066 9.09569 12.398 9.37992 12.0252 9.36038Z" fill="#787486"/>
<path d="M6.69924 9.08127C6.32642 9.06173 6.04919 8.74679 6.06838 8.38063C6.08757 8.01446 6.40286 7.73058 6.76902 7.74976C7.13519 7.76895 7.41908 8.08424 7.39989 8.45041C7.3807 8.81657 7.07207 9.10081 6.69924 9.08127Z" fill="#787486"/>
</svg>
