<svg width="18" height="17" viewBox="0 0 18 17" fill="none" xmlns="http://www.w3.org/2000/svg">
<path d="M9.14032 15.7796C8.66946 15.7796 8.2259 15.5463 7.91199 15.1396L6.88838 13.8063C6.86791 13.7796 6.78602 13.7463 6.7519 13.7396H6.41069C3.56505 13.7396 1.80444 12.9863 1.80444 9.23958V5.90625C1.80444 2.95958 3.39445 1.40625 6.41069 1.40625H11.87C14.8862 1.40625 16.4762 2.95958 16.4762 5.90625V9.23958C16.4762 12.1863 14.8862 13.7396 11.87 13.7396H11.5288C11.4742 13.7396 11.4264 13.7663 11.3923 13.8063L10.3687 15.1396C10.0548 15.5463 9.61119 15.7796 9.14032 15.7796ZM6.41069 2.40625C3.96768 2.40625 2.82805 3.51958 2.82805 5.90625V9.23958C2.82805 12.2529 3.88579 12.7396 6.41069 12.7396H6.7519C7.09993 12.7396 7.49572 12.9329 7.70727 13.2063L8.73088 14.5396C8.96972 14.8463 9.31093 14.8463 9.54977 14.5396L10.5734 13.2063C10.7986 12.9129 11.1534 12.7396 11.5288 12.7396H11.87C14.313 12.7396 15.4526 11.6263 15.4526 9.23958V5.90625C15.4526 3.51958 14.313 2.40625 11.87 2.40625H6.41069Z" fill="#787486"/>
<path d="M9.14042 8.57308C8.75827 8.57308 8.45801 8.27308 8.45801 7.90641C8.45801 7.53975 8.76509 7.23975 9.14042 7.23975C9.51574 7.23975 9.82282 7.53975 9.82282 7.90641C9.82282 8.27308 9.52256 8.57308 9.14042 8.57308Z" fill="#787486"/>
<path d="M11.8699 8.57308C11.4878 8.57308 11.1875 8.27308 11.1875 7.90641C11.1875 7.53975 11.4946 7.23975 11.8699 7.23975C12.2452 7.23975 12.5523 7.53975 12.5523 7.90641C12.5523 8.27308 12.2521 8.57308 11.8699 8.57308Z" fill="#787486"/>
<path d="M6.41068 8.57308C6.02853 8.57308 5.72827 8.27308 5.72827 7.90641C5.72827 7.53975 6.03535 7.23975 6.41068 7.23975C6.786 7.23975 7.09309 7.53975 7.09309 7.90641C7.09309 8.27308 6.79283 8.57308 6.41068 8.57308Z" fill="#787486"/>
</svg>
