<svg width="16" height="17" viewBox="0 0 16 17" fill="none" xmlns="http://www.w3.org/2000/svg">
<path d="M7.99992 15.2566C7.53992 15.2566 7.10659 15.0233 6.79992 14.6166L5.79992 13.2833C5.77992 13.2566 5.69992 13.2233 5.66659 13.2166H5.33325C2.55325 13.2166 0.833252 12.4633 0.833252 8.71663V5.3833C0.833252 2.43663 2.38659 0.883301 5.33325 0.883301H10.6666C13.6133 0.883301 15.1666 2.43663 15.1666 5.3833V8.71663C15.1666 11.6633 13.6133 13.2166 10.6666 13.2166H10.3333C10.2799 13.2166 10.2333 13.2433 10.1999 13.2833L9.19992 14.6166C8.89325 15.0233 8.45992 15.2566 7.99992 15.2566ZM5.33325 1.8833C2.94659 1.8833 1.83325 2.99663 1.83325 5.3833V8.71663C1.83325 11.73 2.86659 12.2166 5.33325 12.2166H5.66659C6.00659 12.2166 6.39325 12.41 6.59992 12.6833L7.59992 14.0166C7.83325 14.3233 8.16659 14.3233 8.39992 14.0166L9.39992 12.6833C9.61992 12.39 9.96659 12.2166 10.3333 12.2166H10.6666C13.0533 12.2166 14.1666 11.1033 14.1666 8.71663V5.3833C14.1666 2.99663 13.0533 1.8833 10.6666 1.8833H5.33325Z" fill="#787486"/>
<path d="M7.99992 8.05013C7.62659 8.05013 7.33325 7.75013 7.33325 7.38346C7.33325 7.0168 7.63325 6.7168 7.99992 6.7168C8.36659 6.7168 8.66659 7.0168 8.66659 7.38346C8.66659 7.75013 8.37325 8.05013 7.99992 8.05013Z" fill="#787486"/>
<path d="M10.6667 8.05013C10.2933 8.05013 10 7.75013 10 7.38346C10 7.0168 10.3 6.7168 10.6667 6.7168C11.0333 6.7168 11.3333 7.0168 11.3333 7.38346C11.3333 7.75013 11.04 8.05013 10.6667 8.05013Z" fill="#787486"/>
<path d="M5.33341 8.05013C4.96008 8.05013 4.66675 7.75013 4.66675 7.38346C4.66675 7.0168 4.96675 6.7168 5.33341 6.7168C5.70008 6.7168 6.00008 7.0168 6.00008 7.38346C6.00008 7.75013 5.70675 8.05013 5.33341 8.05013Z" fill="#787486"/>
</svg>
