<svg width="18" height="17" viewBox="0 0 18 17" fill="none" xmlns="http://www.w3.org/2000/svg">
<path d="M15.6427 7.77083V11.7708C15.6427 14.4375 14.9602 15.1042 12.2306 15.1042H5.40654C2.67691 15.1042 1.99451 14.4375 1.99451 11.7708V5.10416C1.99451 2.43749 2.67691 1.77083 5.40654 1.77083H6.43016C7.45377 1.77083 7.67896 2.06416 8.06793 2.57083L9.09154 3.90416C9.35086 4.23749 9.50099 4.43749 10.1834 4.43749H12.2306C14.9602 4.43749 15.6427 5.10416 15.6427 7.77083Z" stroke="#787486" stroke-miterlimit="10"/>
<path d="M6.43005 1.77083H12.5717C13.9365 1.77083 14.6189 2.43749 14.6189 3.77083V4.69083" stroke="#787486" stroke-miterlimit="10" stroke-linecap="round" stroke-linejoin="round"/>
<path d="M10.5246 10.4375H7.11255" stroke="#787486" stroke-miterlimit="10" stroke-linecap="round" stroke-linejoin="round"/>
</svg>
