<svg width="17" height="17" viewBox="0 0 17 17" fill="none" xmlns="http://www.w3.org/2000/svg">
<path d="M8.47211 16.0816C8.00125 16.0816 7.55768 15.8483 7.24378 15.4416L6.22017 14.1083C6.19969 14.0816 6.11781 14.0483 6.08368 14.0416H5.74248C2.89684 14.0416 1.13623 13.2883 1.13623 9.54165V6.20831C1.13623 3.26165 2.72624 1.70831 5.74248 1.70831H11.2017C14.218 1.70831 15.808 3.26165 15.808 6.20831V9.54165C15.808 12.4883 14.218 14.0416 11.2017 14.0416H10.8605C10.8059 14.0416 10.7582 14.0683 10.7241 14.1083L9.70044 15.4416C9.38654 15.8483 8.94297 16.0816 8.47211 16.0816ZM5.74248 2.70831C3.29946 2.70831 2.15984 3.82165 2.15984 6.20831V9.54165C2.15984 12.555 3.21757 13.0416 5.74248 13.0416H6.08368C6.43171 13.0416 6.82751 13.235 7.03906 13.5083L8.06267 14.8416C8.30151 15.1483 8.64271 15.1483 8.88156 14.8416L9.90517 13.5083C10.1304 13.215 10.4852 13.0416 10.8605 13.0416H11.2017C13.6448 13.0416 14.7844 11.9283 14.7844 9.54165V6.20831C14.7844 3.82165 13.6448 2.70831 11.2017 2.70831H5.74248Z" fill="#787486"/>
<path d="M8.4722 8.87502C8.09005 8.87502 7.78979 8.57502 7.78979 8.20835C7.78979 7.84169 8.09688 7.54169 8.4722 7.54169C8.84753 7.54169 9.15461 7.84169 9.15461 8.20835C9.15461 8.57502 8.85435 8.87502 8.4722 8.87502Z" fill="#787486"/>
<path d="M11.2017 8.87502C10.8195 8.87502 10.5193 8.57502 10.5193 8.20835C10.5193 7.84169 10.8264 7.54169 11.2017 7.54169C11.577 7.54169 11.8841 7.84169 11.8841 8.20835C11.8841 8.57502 11.5838 8.87502 11.2017 8.87502Z" fill="#787486"/>
<path d="M5.74247 8.87502C5.36032 8.87502 5.06006 8.57502 5.06006 8.20835C5.06006 7.84169 5.36714 7.54169 5.74247 7.54169C6.11779 7.54169 6.42487 7.84169 6.42487 8.20835C6.42487 8.57502 6.12461 8.87502 5.74247 8.87502Z" fill="#787486"/>
</svg>
