<svg width="16" height="17" viewBox="0 0 16 17" fill="none" xmlns="http://www.w3.org/2000/svg">
<path d="M7.99992 16.0816C7.53992 16.0816 7.10659 15.8483 6.79992 15.4416L5.79992 14.1083C5.77992 14.0816 5.69992 14.0483 5.66659 14.0416H5.33325C2.55325 14.0416 0.833252 13.2883 0.833252 9.54165V6.20831C0.833252 3.26165 2.38659 1.70831 5.33325 1.70831H10.6666C13.6133 1.70831 15.1666 3.26165 15.1666 6.20831V9.54165C15.1666 12.4883 13.6133 14.0416 10.6666 14.0416H10.3333C10.2799 14.0416 10.2333 14.0683 10.1999 14.1083L9.19992 15.4416C8.89325 15.8483 8.45992 16.0816 7.99992 16.0816ZM5.33325 2.70831C2.94659 2.70831 1.83325 3.82165 1.83325 6.20831V9.54165C1.83325 12.555 2.86659 13.0416 5.33325 13.0416H5.66659C6.00659 13.0416 6.39325 13.235 6.59992 13.5083L7.59992 14.8416C7.83325 15.1483 8.16659 15.1483 8.39992 14.8416L9.39992 13.5083C9.61992 13.215 9.96659 13.0416 10.3333 13.0416H10.6666C13.0533 13.0416 14.1666 11.9283 14.1666 9.54165V6.20831C14.1666 3.82165 13.0533 2.70831 10.6666 2.70831H5.33325Z" fill="#787486"/>
<path d="M7.99992 8.87502C7.62659 8.87502 7.33325 8.57502 7.33325 8.20835C7.33325 7.84169 7.63325 7.54169 7.99992 7.54169C8.36659 7.54169 8.66659 7.84169 8.66659 8.20835C8.66659 8.57502 8.37325 8.87502 7.99992 8.87502Z" fill="#787486"/>
<path d="M10.6667 8.87502C10.2933 8.87502 10 8.57502 10 8.20835C10 7.84169 10.3 7.54169 10.6667 7.54169C11.0333 7.54169 11.3333 7.84169 11.3333 8.20835C11.3333 8.57502 11.04 8.87502 10.6667 8.87502Z" fill="#787486"/>
<path d="M5.33341 8.87502C4.96008 8.87502 4.66675 8.57502 4.66675 8.20835C4.66675 7.84169 4.96675 7.54169 5.33341 7.54169C5.70008 7.54169 6.00008 7.84169 6.00008 8.20835C6.00008 8.57502 5.70675 8.87502 5.33341 8.87502Z" fill="#787486"/>
</svg>
