<svg width="24" height="25" viewBox="0 0 24 25" fill="none" xmlns="http://www.w3.org/2000/svg">
<path d="M12 15.3125C13.6569 15.3125 15 13.9694 15 12.3125C15 10.6556 13.6569 9.3125 12 9.3125C10.3431 9.3125 9 10.6556 9 12.3125C9 13.9694 10.3431 15.3125 12 15.3125Z" stroke="#787486" stroke-width="1.5" stroke-miterlimit="10" stroke-linecap="round" stroke-linejoin="round"/>
<path d="M2 13.1925V11.4325C2 10.3925 2.85 9.5325 3.9 9.5325C5.71 9.5325 6.45 8.2525 5.54 6.6825C5.02 5.7825 5.33 4.6125 6.24 4.0925L7.97 3.1025C8.76 2.6325 9.78 2.9125 10.25 3.7025L10.36 3.8925C11.26 5.4625 12.74 5.4625 13.65 3.8925L13.76 3.7025C14.23 2.9125 15.25 2.6325 16.04 3.1025L17.77 4.0925C18.68 4.6125 18.99 5.7825 18.47 6.6825C17.56 8.2525 18.3 9.5325 20.11 9.5325C21.15 9.5325 22.01 10.3825 22.01 11.4325V13.1925C22.01 14.2325 21.16 15.0925 20.11 15.0925C18.3 15.0925 17.56 16.3725 18.47 17.9425C18.99 18.8525 18.68 20.0125 17.77 20.5325L16.04 21.5225C15.25 21.9925 14.23 21.7125 13.76 20.9225L13.65 20.7325C12.75 19.1625 11.27 19.1625 10.36 20.7325L10.25 20.9225C9.78 21.7125 8.76 21.9925 7.97 21.5225L6.24 20.5325C5.33 20.0125 5.02 18.8425 5.54 17.9425C6.45 16.3725 5.71 15.0925 3.9 15.0925C2.85 15.0925 2 14.2325 2 13.1925Z" stroke="#787486" stroke-width="1.5" stroke-miterlimit="10" stroke-linecap="round" stroke-linejoin="round"/>
</svg>
