<svg width="17" height="17" viewBox="0 0 17 17" fill="none" xmlns="http://www.w3.org/2000/svg">
<path d="M15.1496 7.90625V11.9063C15.1496 14.5729 14.4672 15.2396 11.7376 15.2396H4.9135C2.18387 15.2396 1.50146 14.5729 1.50146 11.9063V5.23958C1.50146 2.57292 2.18387 1.90625 4.9135 1.90625H5.93711C6.96072 1.90625 7.18592 2.19958 7.57489 2.70625L8.5985 4.03958C8.85782 4.37292 9.00795 4.57292 9.69035 4.57292H11.7376C14.4672 4.57292 15.1496 5.23958 15.1496 7.90625Z" stroke="#787486" stroke-miterlimit="10"/>
<path d="M5.93701 1.90625H12.0787C13.4435 1.90625 14.1259 2.57292 14.1259 3.90625V4.82625" stroke="#787486" stroke-miterlimit="10" stroke-linecap="round" stroke-linejoin="round"/>
<path d="M10.0314 10.573H6.61938" stroke="#787486" stroke-miterlimit="10" stroke-linecap="round" stroke-linejoin="round"/>
</svg>
