<svg width="24" height="25" viewBox="0 0 24 25" fill="none" xmlns="http://www.w3.org/2000/svg">
<path d="M9.16006 11.1825C9.06006 11.1725 8.94006 11.1725 8.83006 11.1825C6.45006 11.1025 4.56006 9.1525 4.56006 6.7525C4.56006 4.3025 6.54006 2.3125 9.00006 2.3125C11.4501 2.3125 13.4401 4.3025 13.4401 6.7525C13.4301 9.1525 11.5401 11.1025 9.16006 11.1825Z" stroke="#787486" stroke-width="1.5" stroke-linecap="round" stroke-linejoin="round"/>
<path d="M16.41 4.3125C18.35 4.3125 19.91 5.8825 19.91 7.8125C19.91 9.7025 18.41 11.2425 16.54 11.3125C16.46 11.3025 16.37 11.3025 16.28 11.3125" stroke="#787486" stroke-width="1.5" stroke-linecap="round" stroke-linejoin="round"/>
<path d="M4.15997 14.8725C1.73997 16.4925 1.73997 19.1325 4.15997 20.7425C6.90997 22.5825 11.42 22.5825 14.17 20.7425C16.59 19.1225 16.59 16.4825 14.17 14.8725C11.43 13.0425 6.91997 13.0425 4.15997 14.8725Z" stroke="#787486" stroke-width="1.5" stroke-linecap="round" stroke-linejoin="round"/>
<path d="M18.34 20.3125C19.06 20.1625 19.74 19.8725 20.3 19.4425C21.86 18.2725 21.86 16.3425 20.3 15.1725C19.75 14.7525 19.08 14.4725 18.37 14.3125" stroke="#787486" stroke-width="1.5" stroke-linecap="round" stroke-linejoin="round"/>
</svg>
