<svg width="16" height="17" viewBox="0 0 16 17" fill="none" xmlns="http://www.w3.org/2000/svg">
<path d="M14.3333 7.3833V11.3833C14.3333 14.05 13.6667 14.7166 11 14.7166H4.33333C1.66667 14.7166 1 14.05 1 11.3833V4.71663C1 2.04997 1.66667 1.3833 4.33333 1.3833H5.33333C6.33333 1.3833 6.55333 1.67663 6.93333 2.1833L7.93333 3.51663C8.18667 3.84997 8.33333 4.04997 9 4.04997H11C13.6667 4.04997 14.3333 4.71663 14.3333 7.3833Z" stroke="#787486" stroke-miterlimit="10"/>
<path d="M5.33325 1.3833H11.3333C12.6666 1.3833 13.3333 2.04997 13.3333 3.3833V4.3033" stroke="#787486" stroke-miterlimit="10" stroke-linecap="round" stroke-linejoin="round"/>
<path d="M9.33333 10.05H6" stroke="#787486" stroke-miterlimit="10" stroke-linecap="round" stroke-linejoin="round"/>
</svg>
