<svg width="16" height="17" viewBox="0 0 16 17" fill="none" xmlns="http://www.w3.org/2000/svg">
<path d="M14.3333 7.91754V11.9175C14.3333 14.5842 13.6667 15.2509 11 15.2509H4.33333C1.66667 15.2509 1 14.5842 1 11.9175V5.25087C1 2.58421 1.66667 1.91754 4.33333 1.91754H5.33333C6.33333 1.91754 6.55333 2.21087 6.93333 2.71754L7.93333 4.05087C8.18667 4.38421 8.33333 4.58421 9 4.58421H11C13.6667 4.58421 14.3333 5.25087 14.3333 7.91754Z" stroke="#787486" stroke-miterlimit="10"/>
<path d="M5.33325 1.91754H11.3333C12.6666 1.91754 13.3333 2.58421 13.3333 3.91754V4.83754" stroke="#787486" stroke-miterlimit="10" stroke-linecap="round" stroke-linejoin="round"/>
<path d="M9.33333 10.5842H6" stroke="#787486" stroke-miterlimit="10" stroke-linecap="round" stroke-linejoin="round"/>
</svg>
