<svg width="17" height="16" viewBox="0 0 17 16" fill="none" xmlns="http://www.w3.org/2000/svg">
<path d="M15.2912 7.33333V11.3333C15.2912 14 14.6088 14.6667 11.8792 14.6667H5.0551C2.32547 14.6667 1.64307 14 1.64307 11.3333V4.66667C1.64307 2 2.32547 1.33333 5.0551 1.33333H6.07872C7.10233 1.33333 7.32752 1.62667 7.71649 2.13333L8.7401 3.46667C8.99942 3.8 9.14955 4 9.83196 4H11.8792C14.6088 4 15.2912 4.66667 15.2912 7.33333Z" stroke="#787486" stroke-miterlimit="10"/>
<path d="M6.07861 1.33333H12.2203C13.5851 1.33333 14.2675 2 14.2675 3.33333V4.25333" stroke="#787486" stroke-miterlimit="10" stroke-linecap="round" stroke-linejoin="round"/>
<path d="M10.173 10H6.76099" stroke="#787486" stroke-miterlimit="10" stroke-linecap="round" stroke-linejoin="round"/>
</svg>
